
<svg width="338" height="307" viewBox="0 0 338 307" fill="none" xmlns="http://www.w3.org/2000/svg">
<g clip-path="url(#clip0_2466_79713)">
<path fill-rule="evenodd" clip-rule="evenodd" d="M283.497 10.9105C279.434 15.6816 275.539 21.5981 275.5 26.0206C275.485 27.6845 276.016 29.1372 277.29 30.2374C279.124 31.822 281.144 32.3808 283.155 32.3841C286.093 32.3882 289.011 31.2028 291.295 30.2888C295.142 28.7503 337.67 10.2822 337.67 10.2822C338.08 10.0766 338.003 9.82049 337.49 9.94836C337.282 10.0002 291.192 22.4908 291.192 22.4908C290.319 22.7377 289.417 22.8668 288.509 22.8748C284.967 22.8958 281.815 20.9296 281.841 16.7863C281.851 15.1651 282.347 13.2101 283.497 10.9105Z" fill="#5F5F5F"/>
<path d="M114.231 22.801C114.291 29.2959 119.937 31.4573 120 31.4848C119.952 31.6373 119.098 34.5649 117.025 37.589C115.234 40.2035 113.374 42.8084 110.445 42.8624C107.567 42.9153 106.642 41.1582 103.351 41.1582C100.061 41.1582 99.0332 42.8084 96.3087 42.9153C93.4814 43.0221 91.3284 40.0881 89.5219 37.4832C85.8306 32.1548 83.0097 22.4264 86.7975 15.8596C88.6792 12.5984 92.0419 10.5334 95.6918 10.4804C98.4682 10.4275 101.089 12.3454 102.786 12.3454C104.482 12.3454 107.667 10.039 111.015 10.3777C112.416 10.436 116.35 10.943 118.876 14.6349C118.673 14.7609 114.182 17.3711 114.231 22.801ZM108.822 6.85252C110.323 5.03835 111.333 2.51285 111.058 0C108.894 0.0868259 106.277 1.43959 104.726 3.25276C103.335 4.85841 102.117 7.42835 102.445 9.89147C104.857 10.0778 107.321 8.66785 108.822 6.85252Z" fill="#5F5F5F"/>
<path d="M43 21.6314C43 9.68469 33.3741 0 21.5 0C9.62587 0 0 9.68469 0 21.6314C0 32.4282 7.86223 41.3772 18.1406 43V27.8842H12.6817V21.6314H18.1406V16.8657C18.1406 11.4443 21.3504 8.44978 26.2615 8.44978C28.6138 8.44978 31.0742 8.87225 31.0742 8.87225V14.1956H28.3631C25.6923 14.1956 24.8594 15.863 24.8594 17.5737V21.6314H30.8223L29.8691 27.8842H24.8594V43C35.1378 41.3772 43 32.4282 43 21.6314Z" fill="#5F5F5F"/>
<path d="M15.4461 92C6.91565 92 0 98.9397 0 107.5C0 116.061 6.91565 123 15.4461 123C23.9775 123 30.8924 116.061 30.8924 107.5C30.8924 98.9403 23.9777 92 15.4461 92ZM22.5296 114.356C22.2529 114.811 21.659 114.955 21.2053 114.676C17.5787 112.453 13.0133 111.949 7.63664 113.182C7.11854 113.301 6.60208 112.975 6.48403 112.455C6.36543 111.935 6.68877 111.416 7.20817 111.298C13.092 109.949 18.139 110.53 22.2105 113.027C22.6643 113.306 22.8081 113.9 22.5296 114.356ZM24.4202 110.135C24.0716 110.704 23.3301 110.883 22.7639 110.533C18.612 107.972 12.283 107.231 7.37214 108.727C6.73525 108.92 6.06257 108.56 5.86927 107.922C5.67745 107.282 6.03657 106.609 6.67235 106.414C12.2819 104.706 19.2557 105.534 24.0236 108.474C24.5899 108.824 24.7688 109.568 24.4202 110.135ZM24.5825 105.74C19.6043 102.773 11.3909 102.5 6.63786 103.948C5.87462 104.18 5.06748 103.748 4.83619 102.982C4.6049 102.216 5.03539 101.406 5.79918 101.173C11.2553 99.5111 20.3255 99.8323 26.057 103.247C26.745 103.656 26.97 104.545 26.5624 105.233C26.1566 105.922 25.2668 106.149 24.5825 105.74ZM42.0238 106.309C39.3567 105.671 38.8827 105.223 38.8827 104.282C38.8827 103.392 39.7163 102.794 40.9577 102.794C42.1603 102.794 43.3518 103.248 44.6023 104.184C44.6392 104.212 44.6872 104.223 44.7333 104.216C44.7813 104.209 44.8218 104.183 44.8495 104.145L46.1517 102.302C46.2052 102.227 46.1904 102.122 46.1185 102.064C44.63 100.866 42.9552 100.284 40.9964 100.284C38.1172 100.284 36.1049 102.018 36.1049 104.499C36.1049 107.16 37.8405 108.102 40.8396 108.829C43.3905 109.419 43.8221 109.913 43.8221 110.796C43.8221 111.775 42.9515 112.384 41.5498 112.384C39.993 112.384 38.7222 111.857 37.3019 110.624C37.2669 110.593 37.2189 110.58 37.1747 110.582C37.1267 110.585 37.0843 110.607 37.0548 110.643L35.594 112.386C35.5331 112.46 35.5405 112.568 35.6106 112.631C37.2632 114.111 39.2958 114.892 41.4907 114.892C44.5931 114.892 46.5981 113.191 46.5981 110.557C46.6036 108.335 45.2774 107.104 42.0293 106.311L42.0238 106.309ZM53.6181 103.669C52.2735 103.669 51.1705 104.201 50.2593 105.29V104.064C50.2593 103.967 50.1819 103.889 50.0859 103.889H47.6974C47.6014 103.889 47.524 103.967 47.524 104.064V117.687C47.524 117.784 47.6014 117.863 47.6974 117.863H50.0859C50.1819 117.863 50.2593 117.784 50.2593 117.687V113.388C51.1705 114.411 52.2735 114.913 53.6181 114.913C56.1174 114.913 58.648 112.982 58.648 109.292C58.6516 105.6 56.121 103.669 53.6199 103.669H53.6181ZM55.8702 109.292C55.8702 111.17 54.7174 112.482 53.0648 112.482C51.4324 112.482 50.2003 111.111 50.2003 109.292C50.2003 107.472 51.4324 106.101 53.0648 106.101C54.6897 106.101 55.8702 107.443 55.8702 109.292ZM65.1313 103.669C61.9127 103.669 59.3913 106.156 59.3913 109.332C59.3913 112.473 61.8961 114.933 65.0925 114.933C68.3222 114.933 70.851 112.455 70.851 109.292C70.851 106.139 68.3388 103.669 65.1313 103.669ZM65.1313 112.501C63.4196 112.501 62.1285 111.12 62.1285 109.291C62.1285 107.453 63.3753 106.119 65.0925 106.119C66.8153 106.119 68.1138 107.5 68.1138 109.331C68.1138 111.168 66.8595 112.501 65.1313 112.501ZM77.7234 103.889H75.0951V101.193C75.0951 101.096 75.0176 101.017 74.9217 101.017H72.5331C72.4372 101.017 72.3579 101.096 72.3579 101.193V103.889H71.2106C71.1147 103.889 71.0372 103.967 71.0372 104.064V106.124C71.0372 106.22 71.1147 106.299 71.2106 106.299H72.3579V111.629C72.3579 113.782 73.4258 114.874 75.534 114.874C76.3899 114.874 77.1 114.696 77.7695 114.315C77.8249 114.285 77.8581 114.226 77.8581 114.163V112.201C77.8581 112.142 77.8267 112.084 77.7751 112.053C77.7234 112.02 77.6589 112.018 77.6054 112.046C77.1461 112.277 76.7016 112.384 76.2036 112.384C75.4381 112.384 75.0951 112.035 75.0951 111.253V106.3H77.7234C77.8193 106.3 77.8968 106.221 77.8968 106.125V104.065C77.9005 103.969 77.823 103.89 77.7253 103.89L77.7234 103.889ZM86.8794 103.899V103.568C86.8794 102.594 87.2519 102.159 88.0856 102.159C88.5837 102.159 88.9839 102.259 89.4321 102.409C89.4874 102.426 89.5446 102.417 89.5889 102.384C89.635 102.351 89.6608 102.298 89.6608 102.242V100.222C89.6608 100.145 89.6129 100.077 89.5372 100.054C89.0651 99.9128 88.4601 99.7678 87.5526 99.7678C85.3485 99.7678 84.1809 101.014 84.1809 103.371V103.878H83.0337C82.9377 103.878 82.8584 103.957 82.8584 104.054V106.124C82.8584 106.22 82.9377 106.299 83.0337 106.299H84.1809V114.518C84.1809 114.617 84.2602 114.694 84.3561 114.694H86.7429C86.8406 114.694 86.9181 114.617 86.9181 114.518V106.3H89.1481L92.564 114.518C92.1767 115.381 91.7949 115.553 91.2747 115.553C90.8542 115.553 90.4097 115.427 89.9578 115.177C89.9154 115.155 89.8637 115.152 89.8194 115.164C89.7733 115.181 89.7346 115.214 89.7162 115.259L88.9064 117.041C88.8677 117.126 88.9009 117.225 88.9821 117.269C89.8268 117.728 90.5886 117.924 91.5311 117.924C93.2944 117.924 94.2701 117.099 95.1278 114.881L99.2705 104.139C99.2926 104.085 99.2852 104.024 99.252 103.976C99.2207 103.928 99.1672 103.9 99.11 103.9H96.6237C96.5481 103.9 96.4817 103.947 96.4577 104.017L93.9105 111.316L91.1216 104.013C91.0958 103.945 91.0313 103.9 90.9593 103.9L86.8794 103.899ZM81.571 103.889H79.1824C79.0865 103.889 79.0072 103.967 79.0072 104.064V114.518C79.0072 114.617 79.0865 114.694 79.1824 114.694H81.571C81.6669 114.694 81.7462 114.617 81.7462 114.518V104.065C81.7462 103.968 81.6687 103.889 81.571 103.889ZM80.3905 99.1281C79.4443 99.1281 78.677 99.8967 78.677 100.846C78.677 101.796 79.4443 102.565 80.3905 102.565C81.3367 102.565 82.1022 101.796 82.1022 100.846C82.1022 99.8968 81.3349 99.1281 80.3905 99.1281ZM101.31 107.25C100.366 107.25 99.6302 106.488 99.6302 105.563C99.6302 104.639 100.375 103.868 101.32 103.868C102.264 103.868 103 104.63 103 105.554C103 106.479 102.255 107.25 101.31 107.25ZM101.32 104.036C100.458 104.036 99.8072 104.723 99.8072 105.563C99.8072 106.404 100.455 107.081 101.31 107.081C102.172 107.081 102.823 106.395 102.823 105.554C102.823 104.713 102.176 104.036 101.32 104.036ZM101.692 105.727L102.168 106.395H101.766L101.338 105.782H100.971V106.395H100.635V104.625H101.421C101.832 104.625 102.102 104.835 102.102 105.19C102.104 105.48 101.936 105.657 101.694 105.727H101.692ZM101.408 104.929H100.971V105.489H101.408C101.626 105.489 101.757 105.381 101.757 105.208C101.757 105.026 101.626 104.929 101.408 104.929Z" fill="#5F5F5F"/>
<path d="M313.179 117H313.57V115.168H313.577L314.226 117H314.564L315.214 115.168H315.22V117H315.611V114.626H315.04L314.41 116.485H314.403L313.757 114.626H313.179V117ZM311.017 114.985H311.759V117H312.169V114.985H312.914V114.626H311.017V114.985ZM306.25 117L325 98H313.715L294.965 117H306.25ZM303.562 106.275H280.864C273.946 106.275 272.736 106.646 269.773 109.649C267.002 112.457 262.5 117 262.5 117H272.333L274.678 114.623C276.221 113.06 277.016 112.898 280.254 112.898H297.025L303.562 106.275ZM269.47 108.294C267.423 110.25 262.971 114.633 260.571 117H250C250 117 258.47 108.442 263.178 103.746C268.028 99.0672 270.446 98 279.343 98H311.728L304.716 105.105H280.001C273.75 105.105 272.345 105.544 269.47 108.294Z" fill="white"/>
<path d="M313.179 117H313.57V115.168H313.577L314.226 117H314.564L315.214 115.168H315.22V117H315.611V114.626H315.04L314.41 116.485H314.403L313.757 114.626H313.179V117ZM311.017 114.985H311.759V117H312.169V114.985H312.914V114.626H311.017V114.985ZM306.25 117L325 98H313.715L294.965 117H306.25ZM303.562 106.275H280.864C273.946 106.275 272.736 106.646 269.773 109.649C267.002 112.457 262.5 117 262.5 117H272.333L274.678 114.623C276.221 113.06 277.016 112.898 280.254 112.898H297.025L303.562 106.275ZM269.47 108.294C267.423 110.25 262.971 114.633 260.571 117H250C250 117 258.47 108.442 263.178 103.746C268.028 99.0672 270.446 98 279.343 98H311.728L304.716 105.105H280.001C273.75 105.105 272.345 105.544 269.47 108.294Z" fill="#5F5F5F"/>
<path fill-rule="evenodd" clip-rule="evenodd" d="M91.9952 199.328V199.485C91.9461 200.784 90.8675 201.823 89.5437 201.823C88.2199 201.823 87.0922 200.735 87.0922 199.391V192.571C87.0235 191.277 85.9547 190.247 84.6407 190.247C83.3267 190.247 82.1843 191.346 82.1843 192.704V199.225C82.1843 200.661 81.0811 201.833 79.7279 201.833C78.3795 201.833 77.2715 200.661 77.2715 199.225V187.605C77.2715 186.168 78.3746 184.996 79.7279 184.996C80.4976 184.996 81.1889 185.379 81.64 185.972C82.5569 185.56 83.5718 185.334 84.6407 185.334C88.6023 185.334 91.8334 188.468 91.9952 192.385C91.9952 192.414 91.9952 192.449 91.9952 192.478V192.488C91.9952 192.557 91.9952 192.625 91.9952 192.699V199.333V199.328Z" fill="#5F5F5F"/>
<path fill-rule="evenodd" clip-rule="evenodd" d="M0.0244947 185.031L0.00488271 201.823C0.00488271 201.823 -0.289298 205.52 3.57917 207.638C3.57917 207.638 7.74673 209.389 10.7523 206.927C10.7523 206.927 13.1449 205.28 13.3411 202.466V199.009L9.10486 194.724C9.10486 194.724 6.8838 192.777 8.63417 190.507C8.63417 190.507 10.6836 187.796 13.3901 190.61C13.3901 190.61 15.317 188.095 17.6802 190.037C17.6802 190.037 20.1464 192.14 17.44 194.949L13.8608 198.646V199.235H16.4496C16.4496 199.235 19.1413 199.411 21.3133 197.014C21.3133 197.014 23.4805 194.896 23.0833 190.851C23.0833 190.851 22.8382 187.914 19.4894 185.918C19.4894 185.918 18.8324 185.119 14.3315 185.036H0.0244947V185.031Z" fill="#5F5F5F"/>
<path fill-rule="evenodd" clip-rule="evenodd" d="M68.5048 201.829C63.8568 201.829 60.0913 198.059 60.0913 193.416C60.0913 188.772 63.8617 185.002 68.5048 185.002C73.148 185.002 76.9184 188.772 76.9184 193.416C76.9184 198.059 73.148 201.829 68.5048 201.829ZM68.5048 189.905C70.4415 189.905 72.0105 191.474 72.0105 193.411C72.0105 195.347 70.4415 196.916 68.5048 196.916C66.5681 196.916 64.9992 195.347 64.9992 193.411C64.9992 191.474 66.5681 189.905 68.5048 189.905Z" fill="#5F5F5F"/>
<path fill-rule="evenodd" clip-rule="evenodd" d="M25.981 179.002C27.5304 179.002 28.7856 180.257 28.7856 181.806C28.7856 183.355 27.5304 184.611 25.981 184.611C24.4317 184.611 23.1765 183.355 23.1765 181.806C23.1765 180.257 24.4317 179.002 25.981 179.002Z" fill="#5F5F5F"/>
<path fill-rule="evenodd" clip-rule="evenodd" d="M25.9811 184.996C27.3294 184.996 28.4375 186.168 28.4375 187.605V199.22C28.4375 200.656 27.3343 201.828 25.9811 201.828C24.6328 201.828 23.5247 200.656 23.5247 199.22V187.605C23.5247 186.168 24.6279 184.996 25.9811 184.996Z" fill="#5F5F5F"/>
<path fill-rule="evenodd" clip-rule="evenodd" d="M58.9489 192.307C58.7871 192.449 58.5959 192.576 58.3851 192.679L51.0404 196.263C51.614 196.675 52.3201 196.92 53.08 196.92C54.1881 196.92 55.2324 196.396 55.8894 195.508C55.9042 195.484 55.9238 195.459 55.9434 195.435L55.9532 195.42C56.3994 194.832 57.1103 194.454 57.9046 194.454C59.2578 194.454 60.361 195.552 60.361 196.91C60.361 197.469 60.1747 197.979 59.8609 198.391C58.2772 200.549 55.7571 201.823 53.08 201.823C48.432 201.823 44.6665 198.053 44.6665 193.41C44.6665 188.767 48.4369 184.996 53.08 184.996C55.5953 184.996 57.9732 186.119 59.5716 188.061C59.8364 188.389 60.0227 188.786 60.0913 189.218C60.16 189.463 60.1943 189.718 60.1943 189.973C60.1943 190.914 59.7236 191.787 58.9489 192.307ZM49.5793 193.179L55.051 190.512C54.4774 190.12 53.791 189.904 53.08 189.904C51.2218 189.904 49.7019 191.35 49.5793 193.179Z" fill="#5F5F5F"/>
<path fill-rule="evenodd" clip-rule="evenodd" d="M32.1734 200.825C33.0462 200.825 33.811 201.281 34.2425 201.962C34.7524 202.781 35.6547 203.281 36.6206 203.281C38.1699 203.281 39.425 202.026 39.425 200.477V200.187C38.4983 200.58 37.4834 200.8 36.4145 200.8C32.1538 200.8 28.7021 197.344 28.7021 193.088C28.7021 188.832 32.1587 185.375 36.4145 185.375C37.6648 185.375 38.8464 185.675 39.8908 186.204C40.3369 185.478 41.0675 185.008 41.8814 185.008C43.2297 185.008 44.3378 186.302 44.3378 187.881V200.668C44.3378 200.791 44.3329 200.913 44.3182 201.036C44.0338 205.037 40.6998 208.199 36.6254 208.199C34.0219 208.199 31.5998 206.885 30.1779 204.718C30.124 204.639 30.07 204.556 30.021 204.473L30.0112 204.458C29.8249 204.11 29.717 203.713 29.717 203.291C29.717 201.938 30.8153 200.835 32.1734 200.835V200.825ZM39.4299 194.206V191.96C38.9739 190.739 37.7972 189.867 36.4194 189.867C34.6446 189.867 33.2031 191.308 33.2031 193.083C33.2031 194.858 34.6446 196.299 36.4194 196.299C37.7972 196.299 38.9739 195.432 39.4299 194.206Z" fill="#5F5F5F"/>
<path d="M125.572 183L128.494 191.889H128.577L125.656 183H125.572ZM138.322 193.079L138.238 193.141L130.685 198.65L133.564 207.581L133.585 207.644L133.648 207.602L130.789 198.671L138.343 193.141L138.322 193.079ZM124.946 202.844L117.372 208.311L117.435 208.353L124.988 202.865L124.946 202.844Z" fill="black"/>
<path d="M168.091 196.379C168.091 197.237 167.72 197.492 166.33 197.978C165.216 198.396 164.359 198.582 164.104 198.582C163.64 198.582 163.432 198.233 163.432 197.515C163.432 195.8 163.917 193.713 165.726 193.713C167.396 193.713 168.091 195.522 168.091 196.379ZM150.006 203.867C150.006 203.728 149.984 203.636 149.915 203.566C149.729 203.38 149.034 203.265 148.686 202.917C148.432 202.661 148.268 202.221 148.268 201.201V197.283C148.268 196.981 148.339 196.796 148.64 196.796H152.628C152.929 196.796 152.998 196.981 152.998 197.283V201.201C152.998 202.221 152.837 202.661 152.581 202.917C152.233 203.265 151.538 203.38 151.352 203.566C151.282 203.636 151.26 203.728 151.26 203.867C151.26 204.469 151.353 205.073 151.445 205.165C151.538 205.259 151.677 205.281 151.979 205.281H158.493C158.794 205.281 158.933 205.259 159.026 205.165C159.119 205.073 159.212 204.469 159.212 203.867C159.212 203.728 159.188 203.636 159.119 203.566C158.957 203.404 158.238 203.265 157.89 202.917C157.636 202.661 157.496 202.175 157.496 201.386V190.56C157.496 190.004 157.636 189.631 157.844 189.424C158.215 189.053 158.957 188.983 159.119 188.82C159.188 188.751 159.212 188.612 159.212 188.496C159.212 188.079 159.119 187.453 159.026 187.36C158.933 187.268 158.841 187.243 158.493 187.243H152.21C151.955 187.243 151.862 187.268 151.793 187.338C151.724 187.407 151.654 187.894 151.654 188.52C151.654 188.635 151.677 188.774 151.724 188.82C151.839 188.937 152.419 189.122 152.651 189.354C152.906 189.61 152.998 189.888 152.998 190.676V193.759C152.998 193.875 152.882 194.037 152.721 194.037H148.547C148.384 194.037 148.268 193.875 148.268 193.759V190.676C148.268 189.888 148.361 189.61 148.616 189.354C148.849 189.122 149.428 188.937 149.544 188.82C149.591 188.774 149.614 188.635 149.614 188.52C149.614 187.894 149.544 187.407 149.475 187.338C149.405 187.268 149.312 187.243 149.057 187.243H142.775C142.427 187.243 142.334 187.268 142.241 187.36C142.149 187.453 142.055 188.079 142.055 188.496C142.055 188.612 142.079 188.751 142.149 188.82C142.311 188.983 143.053 189.053 143.423 189.424C143.632 189.631 143.771 190.004 143.771 190.56V201.386C143.771 202.175 143.632 202.661 143.377 202.917C143.029 203.265 142.311 203.404 142.149 203.566C142.079 203.636 142.055 203.728 142.055 203.867C142.055 204.469 142.149 205.073 142.241 205.165C142.334 205.259 142.427 205.281 142.775 205.281H149.289C149.591 205.281 149.729 205.259 149.823 205.165C149.915 205.073 150.006 204.469 150.006 203.867ZM171.545 203.543C172.217 202.871 172.381 202.476 172.381 202.151C172.381 201.803 172.287 201.525 172.01 201.247C171.707 200.946 171.454 200.899 171.221 200.899C170.896 200.899 170.757 200.992 170.549 201.201C169.529 202.221 168.23 202.777 166.654 202.777C165.054 202.777 164.057 201.711 164.057 201.038C164.057 200.853 164.22 200.691 164.636 200.575C169.088 199.183 170.943 198.257 171.638 197.561C172.032 197.19 172.194 196.749 172.194 196.355C172.194 194.594 169.645 191.464 165.726 191.464C164.104 191.464 162.458 192.112 161.229 193.342C160 194.571 159.235 196.309 159.235 198.674C159.235 200.946 159.954 202.523 161.206 203.775C162.458 205.027 164.266 205.653 166.237 205.653C168.254 205.653 170.155 204.934 171.545 203.543ZM178.802 192.251C178.802 191.951 178.639 191.834 178.385 191.834H173.91C173.655 191.834 173.563 191.834 173.492 191.928C173.4 192.02 173.308 192.646 173.308 193.064C173.308 193.18 173.354 193.271 173.4 193.342C173.563 193.55 173.91 193.619 174.212 193.875C174.42 194.084 174.514 194.524 174.514 195.196V201.386C174.514 202.175 174.42 202.685 174.188 202.917C173.84 203.265 173.261 203.427 173.099 203.589C173.053 203.636 173.029 203.728 173.029 203.891C173.029 204.493 173.122 205.073 173.215 205.165C173.285 205.235 173.4 205.281 173.655 205.281H179.614C179.869 205.281 179.985 205.235 180.054 205.165C180.147 205.073 180.216 204.493 180.216 203.891C180.216 203.728 180.193 203.636 180.147 203.589C179.985 203.427 179.451 203.265 179.103 202.917C178.872 202.685 178.802 202.175 178.802 201.386V192.251ZM176.321 186.41C175.047 186.41 174.003 187.407 174.003 188.659C174.003 189.934 175.047 190.931 176.321 190.931C177.62 190.931 178.663 189.934 178.663 188.659C178.663 187.407 177.62 186.41 176.321 186.41ZM194.289 195.428C194.289 192.832 192.944 191.51 190.834 191.51C189.837 191.51 188.771 191.834 187.704 192.484C187.334 192.716 187.218 192.786 187.125 192.786C186.754 192.786 187.009 191.834 186.336 191.834H182.257C182.001 191.834 181.932 191.834 181.839 191.928C181.723 192.044 181.631 192.646 181.631 193.064C181.631 193.18 181.654 193.271 181.723 193.342C181.909 193.528 182.257 193.597 182.535 193.875C182.744 194.084 182.835 194.524 182.835 195.196V201.386C182.835 202.175 182.766 202.685 182.535 202.917C182.21 203.241 181.654 203.427 181.491 203.589C181.445 203.636 181.421 203.728 181.421 203.891C181.421 204.493 181.491 205.073 181.585 205.165C181.654 205.235 181.793 205.281 182.048 205.281H187.891C188.169 205.281 188.26 205.235 188.33 205.165C188.446 205.049 188.54 204.493 188.54 203.891C188.54 203.728 188.516 203.636 188.469 203.589C188.285 203.404 187.751 203.241 187.427 202.917C187.194 202.685 187.079 202.175 187.079 201.386V196.82C187.079 194.942 188.121 194.362 188.887 194.362C189.675 194.362 190.116 194.942 190.116 196.169V202.593C190.116 204.308 191.206 205.443 193.177 205.443C195.355 205.443 196.282 203.867 196.282 203.543C196.282 203.265 195.842 202.708 195.564 202.708C195.239 202.708 194.776 203.125 194.544 203.125C194.382 203.125 194.289 203.009 194.289 202.639V195.428ZM237.249 203.543C237.921 202.871 238.083 202.476 238.083 202.151C238.083 201.803 237.991 201.525 237.713 201.247C237.411 200.946 237.155 200.899 236.924 200.899C236.6 200.899 236.46 200.992 236.252 201.201C235.232 202.221 233.934 202.777 232.357 202.777C230.758 202.777 229.761 201.711 229.761 201.038C229.761 200.853 229.922 200.691 230.34 200.575C234.791 199.183 236.646 198.257 237.342 197.561C237.736 197.19 237.898 196.749 237.898 196.355C237.898 194.594 235.348 191.464 231.43 191.464C229.806 191.464 228.16 192.112 226.931 193.342C225.703 194.571 224.938 196.309 224.938 198.674C224.938 200.946 225.657 202.523 226.908 203.775C228.16 205.027 229.969 205.653 231.939 205.653C233.956 205.653 235.859 204.934 237.249 203.543ZM233.794 196.379C233.794 197.237 233.424 197.492 232.032 197.978C230.92 198.396 230.062 198.582 229.806 198.582C229.343 198.582 229.134 198.233 229.134 197.515C229.134 195.8 229.621 193.713 231.43 193.713C233.098 193.713 233.794 195.522 233.794 196.379ZM208.755 203.543C209.427 202.871 209.591 202.476 209.591 202.151C209.591 201.803 209.497 201.525 209.22 201.247C208.918 200.946 208.664 200.899 208.432 200.899C208.105 200.899 207.968 200.992 207.759 201.201C206.739 202.221 205.44 202.777 203.863 202.777C202.264 202.777 201.267 201.711 201.267 201.038C201.267 200.853 201.43 200.691 201.847 200.575C206.298 199.183 208.153 198.257 208.848 197.561C209.243 197.19 209.405 196.749 209.405 196.355C209.405 194.594 206.855 191.464 202.936 191.464C201.314 191.464 199.668 192.112 198.439 193.342C197.21 194.571 196.445 196.309 196.445 198.674C196.445 200.946 197.164 202.523 198.415 203.775C199.668 205.027 201.476 205.653 203.447 205.653C205.464 205.653 207.365 204.934 208.755 203.543ZM205.302 196.379C205.302 197.237 204.93 197.492 203.54 197.978C202.426 198.396 201.569 198.582 201.314 198.582C200.85 198.582 200.642 198.233 200.642 197.515C200.642 195.8 201.128 193.713 202.936 193.713C204.606 193.713 205.302 195.522 205.302 196.379ZM251.715 195.428C251.715 192.832 250.371 191.51 248.262 191.51C247.264 191.51 246.197 191.834 245.132 192.484C244.76 192.716 244.643 192.786 244.552 192.786C244.181 192.786 244.436 191.834 243.764 191.834H239.684C239.428 191.834 239.358 191.834 239.266 191.928C239.15 192.044 239.057 192.646 239.057 193.064C239.057 193.18 239.08 193.271 239.15 193.342C239.336 193.528 239.684 193.597 239.962 193.875C240.17 194.084 240.263 194.524 240.263 195.196V201.386C240.263 202.175 240.193 202.685 239.962 202.917C239.636 203.241 239.08 203.427 238.918 203.589C238.872 203.636 238.848 203.728 238.848 203.891C238.848 204.493 238.918 205.073 239.009 205.165C239.08 205.235 239.22 205.281 239.474 205.281H245.316C245.595 205.281 245.688 205.235 245.758 205.165C245.874 205.049 245.965 204.493 245.965 203.891C245.965 203.728 245.943 203.636 245.896 203.589C245.711 203.404 245.178 203.241 244.853 202.917C244.621 202.685 244.504 202.175 244.504 201.386V196.82C244.504 194.942 245.548 194.362 246.314 194.362C247.102 194.362 247.542 194.942 247.542 196.169V202.593C247.542 204.308 248.632 205.443 250.603 205.443C252.782 205.443 253.709 203.867 253.709 203.543C253.709 203.265 253.269 202.708 252.991 202.708C252.666 202.708 252.203 203.125 251.971 203.125C251.808 203.125 251.715 203.009 251.715 202.639V195.428ZM215.316 186.827H210.865C210.587 186.827 210.471 186.827 210.402 186.944C210.309 187.059 210.239 187.639 210.239 188.033C210.239 188.172 210.263 188.264 210.309 188.357C210.471 188.52 211.098 188.682 211.375 188.96C211.607 189.192 211.724 189.656 211.724 191.417V200.691C211.724 202.245 211.562 202.731 211.375 202.917C211.051 203.241 210.495 203.427 210.332 203.589C210.286 203.636 210.263 203.728 210.263 203.891C210.263 204.493 210.332 205.073 210.425 205.165C210.495 205.235 210.587 205.281 210.889 205.281H216.708C217.009 205.281 217.101 205.235 217.171 205.165C217.264 205.073 217.38 204.493 217.38 203.891C217.38 203.728 217.357 203.636 217.287 203.589C217.125 203.427 216.569 203.241 216.267 202.917C216.013 202.685 215.919 202.175 215.919 201.386V200.853C215.919 200.552 216.013 200.459 216.523 199.949C216.754 199.741 216.962 199.579 217.125 199.579C217.357 199.579 217.542 199.741 220.093 204.887C220.255 205.212 220.324 205.281 220.741 205.281H224.52C224.798 205.281 224.892 205.235 224.961 205.165C225.054 205.073 225.147 204.493 225.147 203.891C225.147 203.728 225.124 203.636 225.076 203.589C224.914 203.427 223.941 203.311 223.733 202.917C220.371 197.237 220.278 197.051 220.278 196.704C220.278 196.402 221.762 194.919 222.991 193.945C223.779 193.319 224.288 193.735 224.288 192.994C224.288 192.136 224.173 191.834 224.011 191.834H218.401C217.913 191.834 217.867 192.112 217.867 193.156C217.867 193.503 218.841 193.55 218.841 194.037C218.841 194.454 216.476 196.727 216.082 196.727C215.943 196.727 215.919 196.634 215.919 196.239V187.476C215.919 187.105 215.664 186.827 215.316 186.827Z" fill="#5F5F5F"/>
<path d="M124.931 183.191L128.008 192.551L137.861 192.585L129.91 198.405L132.922 207.786L124.931 202.023L116.939 207.786L119.951 198.405L112 192.585L121.853 192.551L124.931 183.191Z" fill="#5F5F5F"/>
<path d="M251.727 186.342C252.117 186.342 252.491 186.44 252.849 186.635C253.207 186.829 253.488 187.108 253.691 187.472C253.897 187.836 254 188.217 254 188.615C254 189.01 253.899 189.388 253.697 189.748C253.497 190.106 253.218 190.386 252.857 190.588C252.499 190.788 252.123 190.888 251.727 190.888C251.331 190.888 250.953 190.788 250.593 190.588C250.235 190.386 249.955 190.106 249.754 189.748C249.554 189.388 249.454 189.01 249.454 188.615C249.454 188.217 249.556 187.836 249.759 187.472C249.965 187.108 250.247 186.829 250.605 186.635C250.963 186.44 251.337 186.342 251.727 186.342ZM251.73 186.787C251.418 186.787 251.118 186.865 250.831 187.021C250.544 187.177 250.318 187.402 250.152 187.695C249.987 187.988 249.905 188.294 249.905 188.615C249.905 188.933 249.985 189.237 250.146 189.526C250.308 189.815 250.533 190.04 250.822 190.202C251.111 190.365 251.414 190.446 251.73 190.446C252.049 190.446 252.351 190.365 252.638 190.202C252.927 190.04 253.153 189.815 253.315 189.526C253.477 189.237 253.558 188.933 253.558 188.615C253.558 188.294 253.475 187.988 253.309 187.695C253.145 187.402 252.918 187.177 252.629 187.021C252.343 186.865 252.043 186.787 251.73 186.787ZM250.701 189.831V187.419H251.19C251.649 187.419 251.906 187.421 251.962 187.425C252.124 187.439 252.25 187.471 252.339 187.523C252.43 187.572 252.505 187.649 252.564 187.754C252.625 187.857 252.656 187.972 252.656 188.098C252.656 188.273 252.599 188.422 252.484 188.547C252.371 188.669 252.212 188.745 252.006 188.775C252.079 188.803 252.136 188.833 252.175 188.867C252.215 188.899 252.269 188.96 252.339 189.051C252.356 189.075 252.416 189.173 252.517 189.345L252.801 189.831H252.196L251.994 189.44C251.858 189.177 251.745 189.011 251.656 188.944C251.567 188.875 251.454 188.84 251.318 188.84H251.19V189.831H250.701ZM251.19 188.46H251.389C251.672 188.46 251.847 188.45 251.914 188.428C251.983 188.406 252.038 188.368 252.077 188.315C252.117 188.26 252.137 188.197 252.137 188.128C252.137 188.061 252.117 188.002 252.077 187.95C252.04 187.897 251.985 187.859 251.914 187.837C251.843 187.814 251.668 187.802 251.389 187.802H251.19V188.46Z" fill="#5F5F5F"/>
<path d="M301 167C288.297 167 278 177.298 278 190C278 202.703 288.297 213 301 213C313.703 213 324 202.703 324 190C324 177.298 313.703 167 301 167ZM279.692 190C279.692 187.529 280.107 185.123 280.929 182.829L283.141 184.366V201.632C282.453 200.578 281.861 199.463 281.366 198.293C280.256 195.667 279.692 192.877 279.692 190ZM316.067 205.067C314.11 207.024 311.831 208.561 309.294 209.634C306.668 210.745 303.878 211.308 301 211.308C298.123 211.308 295.333 210.745 292.707 209.634C290.169 208.561 287.891 207.024 285.933 205.067C285.316 204.449 284.74 203.8 284.208 203.121H295.984L300.621 199.763V181.491L295.984 178.038H283.362C284.114 176.931 284.973 175.893 285.933 174.933C287.891 172.976 290.169 171.439 292.707 170.366C295.333 169.255 298.123 168.692 301 168.692C303.878 168.692 306.668 169.255 309.294 170.366C311.831 171.439 314.11 172.976 316.067 174.933C317.027 175.893 317.886 176.931 318.638 178.038H315.271L314.515 179.708L312.267 178.038H307.037L302.433 181.491V199.763L307.016 203.121H317.793C317.26 203.8 316.685 204.449 316.067 205.067ZM287.843 183.779H292.054C293.232 183.779 294.187 184.734 294.187 185.912V195.355C294.187 196.533 293.232 197.488 292.054 197.488H289.528V185L287.843 183.779ZM319.421 200.72V194.209H313.461V197.488H310.886C309.76 197.488 308.848 196.575 308.848 195.449V185.002L307.162 183.779H313.461V187.358H318.924L320.011 180.364C320.233 180.803 320.441 181.251 320.634 181.707C321.745 184.332 322.308 187.123 322.308 190C322.308 192.877 321.745 195.667 320.634 198.293C320.28 199.131 319.875 199.941 319.421 200.72Z" fill="#5F5F5F"/>
<path d="M36.2805 293.772C36.2805 297.801 33.139 300.769 29.2836 300.769C25.4282 300.769 22.2866 297.801 22.2866 293.772C22.2866 289.715 25.4282 286.775 29.2836 286.775C33.139 286.775 36.2805 289.715 36.2805 293.772ZM33.2176 293.772C33.2176 291.255 31.3968 289.532 29.2836 289.532C27.1703 289.532 25.3496 291.255 25.3496 293.772C25.3496 296.264 27.1703 298.012 29.2836 298.012C31.3968 298.012 33.2176 296.261 33.2176 293.772Z" fill="#5F5F5F"/>
<path d="M51.311 293.772C51.311 297.801 48.1694 300.769 44.314 300.769C40.4586 300.769 37.3171 297.801 37.3171 293.772C37.3171 289.718 40.4586 286.775 44.314 286.775C48.1694 286.775 51.311 289.715 51.311 293.772ZM48.248 293.772C48.248 291.255 46.4272 289.532 44.314 289.532C42.2008 289.532 40.38 291.255 40.38 293.772C40.38 296.264 42.2008 298.012 44.314 298.012C46.4272 298.012 48.248 296.261 48.248 293.772Z" fill="#5F5F5F"/>
<path d="M65.823 287.197V299.728C65.823 304.883 62.7615 306.989 59.1422 306.989C55.7353 306.989 53.6848 304.726 52.9115 302.875L55.599 301.764C56.0776 302.901 57.2502 304.241 59.1391 304.241C61.4558 304.241 62.8914 302.822 62.8914 300.15V299.146H62.7837C62.0928 299.993 60.7617 300.732 59.082 300.732C55.5673 300.732 52.3474 297.692 52.3474 293.78C52.3474 289.84 55.5673 286.775 59.082 286.775C60.7586 286.775 62.0896 287.515 62.7837 288.336H62.8914V287.2H65.823V287.197ZM63.1101 293.78C63.1101 291.323 61.459 289.526 59.3577 289.526C57.228 289.526 55.4437 291.323 55.4437 293.78C55.4437 296.213 57.228 297.985 59.3577 297.985C61.459 297.985 63.1101 296.213 63.1101 293.78Z" fill="#5F5F5F"/>
<path d="M71.006 279.52V300.251H67.8962V279.52H71.006Z" fill="#5F5F5F"/>
<path d="M82.4724 296.078L84.8668 297.668C84.094 298.807 82.2317 300.769 79.0137 300.769C75.0229 300.769 72.0425 297.696 72.0425 293.772C72.0425 289.611 75.0483 286.775 78.6685 286.775C82.314 286.775 84.0972 289.665 84.68 291.226L84.9999 292.021L75.6089 295.895C76.3279 297.299 77.4459 298.015 79.0137 298.015C80.5847 298.015 81.6742 297.245 82.4724 296.078ZM75.1021 293.561L81.3797 290.964C81.0344 290.091 79.9956 289.482 78.773 289.482C77.2052 289.482 75.0229 290.86 75.1021 293.561Z" fill="#5F5F5F"/>
<path d="M11.0604 291.939V288.965H21.1012C21.1993 289.483 21.25 290.096 21.25 290.76C21.25 292.991 20.6389 295.75 18.6694 297.716C16.7537 299.707 14.306 300.769 11.0636 300.769C5.05364 300.769 0 295.883 0 289.885C0 283.886 5.05364 279 11.0636 279C14.3883 279 16.7568 280.302 18.5364 282L16.4338 284.098C15.1578 282.903 13.4289 281.974 11.0604 281.974C6.6717 281.974 3.23927 285.504 3.23927 289.885C3.23927 294.265 6.6717 297.795 11.0604 297.795C13.907 297.795 15.5282 296.654 16.5668 295.617C17.4091 294.777 17.9632 293.576 18.1817 291.936L11.0604 291.939Z" fill="#5F5F5F"/>
<path d="M112 273V303.996H134.049V273H112ZM130.86 300.876H115.178V276.123H130.86V300.876Z" fill="#5F5F5F"/>
<path d="M147.188 283.808H147.158C145.399 281.035 143.623 278.585 141.832 276.118H140.465V286.907H141.974V279.169H141.989C143.765 281.959 145.54 284.426 147.331 286.907H148.698V276.118H147.188V283.808ZM158.076 286.907L154.572 276.118H153.002L149.2 286.907H150.833L151.792 283.963H155.106L155.971 286.907H158.076ZM152.279 282.637C152.719 281.218 153.159 279.911 153.551 278.244H153.583C154.023 279.91 154.416 281.218 154.824 282.637H152.279ZM159.851 286.907H161.736V277.567H164.627V276.118H156.961V277.567H159.851V286.907ZM167.108 276.118H165.239V286.907H167.108V276.118ZM172.922 287.091C175.798 287.091 177.589 284.579 177.589 281.358C177.589 278.337 175.608 275.932 172.922 275.932C170.235 275.932 168.255 278.337 168.255 281.358C168.255 284.58 170.046 287.091 172.922 287.091ZM172.922 277.474C174.792 277.474 175.577 279.37 175.577 281.358C175.577 283.423 174.886 285.55 172.922 285.55C170.958 285.55 170.267 283.424 170.267 281.358C170.267 279.37 171.053 277.474 172.922 277.474ZM180.242 279.169H180.259C182.034 281.959 183.809 284.426 185.6 286.907H186.967V276.118H185.458V283.808H185.427C183.668 281.035 181.892 278.585 180.101 276.118H178.735V286.907H180.242V279.169ZM190.06 283.963H193.376L194.24 286.907H196.345L192.842 276.118H191.271L187.468 286.907H189.104L190.06 283.963ZM191.822 278.244H191.853C192.292 279.91 192.685 281.218 193.094 282.637H190.547C190.989 281.218 191.427 279.91 191.822 278.244ZM202.487 285.457H198.765V276.118H196.895V286.907H202.488L202.487 285.457ZM145.652 299.246C145.258 299.446 144.835 299.508 144.332 299.508C142.714 299.508 141.143 297.997 141.143 295.44C141.143 292.99 142.51 291.432 144.521 291.432C145.244 291.432 146.029 291.694 146.532 292.002L147.144 290.723C146.516 290.26 145.495 289.891 144.473 289.891C141.175 289.891 139.132 292.465 139.132 295.408C139.132 298.583 141.175 301.05 144.41 301.05C145.478 301.05 146.531 300.774 147.537 300.386V295.931H145.652V299.246ZM151.133 295.932H154.213V294.484H151.133V291.525H154.276V290.077H149.249V300.865H154.842V299.415H151.133V295.932ZM160.089 289.891C157.402 289.891 155.424 292.295 155.424 295.317C155.424 298.537 157.214 301.05 160.089 301.05C162.964 301.05 164.754 298.537 164.754 295.317C164.754 292.295 162.775 289.891 160.089 289.891ZM160.089 299.508C158.125 299.508 157.434 297.382 157.434 295.316C157.434 293.327 158.219 291.432 160.089 291.432C161.958 291.432 162.744 293.327 162.744 295.316C162.744 297.382 162.053 299.508 160.089 299.508ZM171.919 299.246C171.526 299.446 171.102 299.508 170.599 299.508C168.981 299.508 167.409 297.997 167.409 295.44C167.409 292.99 168.777 291.432 170.788 291.432C171.511 291.432 172.297 291.694 172.798 292.002L173.411 290.723C172.783 290.26 171.761 289.891 170.739 289.891C167.441 289.891 165.399 292.465 165.399 295.408C165.399 298.583 167.441 301.05 170.678 301.05C171.745 301.05 172.797 300.774 173.804 300.386V295.931H171.919V299.246ZM181.879 293.19C181.879 291.093 180.575 290.077 178.47 290.077H175.532V300.865H177.417V296.796H178.265L180.041 300.865H182.192L179.979 296.395C181.187 295.763 181.879 294.484 181.879 293.19ZM178.203 295.409C178.014 295.424 177.573 295.44 177.417 295.455V291.526H178.251C179.364 291.526 179.992 292.156 179.992 293.266C179.992 294.715 179.098 295.363 178.203 295.409ZM186.027 290.077L182.224 300.865H183.857L184.816 297.921H188.131L188.997 300.865H191.101L187.597 290.077H186.027ZM185.304 296.597C185.744 295.177 186.184 293.868 186.576 292.204H186.608C187.048 293.868 187.44 295.177 187.85 296.597H185.304ZM204.895 294.222H200.982V290.077H199.113V300.865H200.982V295.67H204.895V300.865H206.779V290.106H204.895V294.222ZM208.585 300.864H210.454V290.077H208.585V300.864ZM217.053 299.508C215.231 299.508 213.69 297.997 213.69 295.44C213.69 292.99 215.09 291.432 217.006 291.432C217.729 291.432 218.483 291.755 218.939 292.033L219.535 290.724C218.891 290.292 217.981 289.891 217.006 289.891C213.723 289.891 211.696 292.465 211.696 295.409C211.696 298.584 213.739 301.05 216.976 301.05C217.887 301.05 218.892 300.695 219.457 300.311L218.94 298.969C218.452 299.277 217.776 299.508 217.053 299.508ZM194.635 290.077H191.699V300.865H193.584V296.796H194.431C196.679 296.796 198.045 295.007 198.045 293.19C198.044 291.093 196.741 290.077 194.635 290.077ZM194.368 295.409C194.18 295.423 193.725 295.437 193.583 295.452V291.525H194.431C195.531 291.525 196.16 292.156 196.16 293.266C196.159 294.714 195.264 295.363 194.368 295.409Z" fill="#5F5F5F"/>
<path d="M254.598 283.073C254.542 283.08 254.341 283.105 254.158 283.126C251.725 283.404 249.556 284.684 248.294 286.586C247.165 288.284 246.753 290.432 247.144 292.563C247.78 296.019 250.505 298.481 254.197 298.931C254.756 299.001 255.927 299.008 256.493 298.948C258.163 298.769 259.436 298.263 260.614 297.306C260.972 297.014 261.5 296.505 261.764 296.185C262.643 295.13 262.333 293.519 261.127 292.887C260.47 292.538 259.795 292.535 259.116 292.866C258.87 292.989 258.75 293.08 258.395 293.425C257.664 294.135 257.098 294.49 256.387 294.68C256.075 294.764 255.976 294.771 255.406 294.775C254.651 294.778 254.352 294.715 253.789 294.444C253.03 294.075 252.499 293.449 252.21 292.581C252.028 292.036 251.968 291.635 251.968 290.998C251.968 290.214 252.094 289.61 252.372 289.047C252.945 287.894 253.982 287.289 255.371 287.296C256.532 287.303 257.565 287.841 258.304 288.822C259.13 289.923 260.688 290.039 261.647 289.068C262.112 288.604 262.298 288.143 262.294 287.482C262.287 286.737 262.076 286.333 261.187 285.394C260.15 284.3 258.933 283.59 257.558 283.284C256.845 283.122 256.475 283.084 255.565 283.07C255.09 283.063 254.658 283.066 254.598 283.073Z" fill="#5F5F5F"/>
<path d="M285.943 283.092C282.346 283.465 279.541 285.771 278.718 289.027C278.437 290.145 278.394 291.39 278.595 292.505C279.087 295.198 280.859 297.325 283.479 298.366C285.634 299.22 288.31 299.206 290.44 298.327C293.011 297.265 294.744 295.128 295.205 292.459C295.398 291.351 295.345 290.103 295.064 288.981C294.825 288.036 294.35 287.051 293.746 286.246C293.443 285.842 292.642 285.05 292.22 284.738C290.968 283.809 289.491 283.257 287.81 283.089C287.385 283.046 286.372 283.05 285.943 283.092ZM287.684 287.29C289.059 287.554 290.004 288.584 290.282 290.124C290.447 291.045 290.346 292.132 290.019 292.905C289.674 293.714 289.062 294.336 288.31 294.646C287.86 294.829 287.547 294.881 286.91 294.881C286.397 294.881 286.267 294.871 285.996 294.801C284.639 294.449 283.767 293.44 283.496 291.903C283.419 291.471 283.419 290.634 283.496 290.195C283.806 288.472 284.86 287.427 286.488 287.237C286.791 287.202 287.353 287.227 287.684 287.29Z" fill="#5F5F5F"/>
<path d="M305.176 283.105C303.176 283.355 301.537 284.097 300.243 285.338C298.327 287.173 297.522 289.909 298.077 292.697C298.422 294.427 299.325 295.967 300.647 297.071C301.263 297.584 302.131 298.091 302.908 298.393C304.097 298.854 305.566 299.072 306.917 298.98C308.759 298.861 310.025 298.425 311.312 297.472C311.741 297.156 312.644 296.262 312.824 295.981C313.189 295.398 313.274 294.701 313.052 294.068C312.736 293.168 311.822 292.564 310.872 292.63C310.246 292.673 309.933 292.827 309.329 293.404C308.414 294.272 307.806 294.613 306.924 294.747C306.213 294.856 305.363 294.758 304.775 294.497C303.822 294.075 303.161 293.144 302.94 291.913C302.866 291.502 302.856 290.573 302.922 290.173C303.154 288.752 304.012 287.743 305.261 287.416C306.73 287.029 308.232 287.546 309.149 288.752C309.427 289.114 309.666 289.322 310.007 289.487C310.658 289.811 311.333 289.81 311.98 289.491C312.743 289.111 313.196 288.387 313.203 287.536C313.207 286.952 313.042 286.512 312.641 286.02C311.459 284.575 310.215 283.731 308.664 283.33C307.947 283.144 307.437 283.084 306.46 283.07C305.834 283.06 305.464 283.07 305.176 283.105Z" fill="#5F5F5F"/>
<path d="M321.069 283.08C319.944 283.185 319.181 283.375 318.446 283.727C317.141 284.349 316.368 285.305 316.037 286.712C315.946 287.095 315.907 288.199 315.967 288.656C316.199 290.407 317.261 291.659 319.135 292.401C319.582 292.577 320.169 292.749 321.157 292.988C323.27 293.498 323.541 293.596 323.706 293.92C323.801 294.103 323.801 294.437 323.709 294.616C323.513 294.999 323.087 295.143 322.046 295.175C320.594 295.221 319.687 294.936 318.404 294.022C317.922 293.677 317.704 293.579 317.289 293.526C316.428 293.41 315.559 293.965 315.257 294.827C315.151 295.129 315.151 295.72 315.26 296.036C315.338 296.254 315.528 296.581 315.679 296.75C315.932 297.035 316.769 297.643 317.324 297.946C318.917 298.814 321.129 299.169 323.407 298.927C325.893 298.659 327.472 297.58 328.041 295.766C328.22 295.192 328.312 294.581 328.312 293.93C328.312 292.668 327.918 291.69 327.088 290.889C326.206 290.038 325.06 289.521 323.098 289.082C321.326 288.688 320.949 288.579 320.619 288.368C320.334 288.181 320.246 288.016 320.243 287.675C320.243 287.464 320.257 287.408 320.341 287.281C320.513 287.018 320.816 286.884 321.385 286.814C322.539 286.673 323.762 287.07 324.831 287.932C325.281 288.294 325.643 288.435 326.132 288.435C326.761 288.435 327.296 288.157 327.665 287.64C328.069 287.074 328.126 286.381 327.823 285.745C327.672 285.425 327.436 285.151 326.976 284.76C325.837 283.793 324.504 283.263 322.795 283.09C322.465 283.059 321.364 283.048 321.069 283.08Z" fill="#5F5F5F"/>
<path d="M267.017 283.299C266.152 283.436 265.48 283.935 265.107 284.719C264.868 285.222 264.879 284.867 264.889 291.22L264.9 296.959L265.005 297.257C265.269 298.013 265.884 298.597 266.675 298.847C267.009 298.949 267.621 298.959 267.976 298.864C268.658 298.685 269.274 298.179 269.576 297.556C269.819 297.053 269.815 297.113 269.84 294.743C269.861 292.753 269.868 292.57 269.938 292.18C270.033 291.677 270.097 291.428 270.216 291.094C270.708 289.726 271.679 288.819 272.945 288.552C273.296 288.478 273.606 288.492 274.098 288.597C274.703 288.724 275.339 288.731 275.694 288.615C276.07 288.488 276.401 288.277 276.714 287.961C277.192 287.476 277.413 286.934 277.413 286.252C277.41 285.806 277.347 285.531 277.153 285.145C276.883 284.603 276.549 284.283 275.94 283.981C275.335 283.682 275.125 283.636 274.305 283.636C273.521 283.636 273.145 283.689 272.54 283.882C271.654 284.167 270.765 284.691 270.079 285.331C269.952 285.451 269.84 285.549 269.826 285.549C269.815 285.549 269.805 285.5 269.805 285.44C269.805 285.124 269.527 284.494 269.235 284.15C268.915 283.773 268.444 283.478 267.969 283.355C267.702 283.288 267.266 283.26 267.017 283.299Z" fill="#5F5F5F"/>
<path d="M329.528 283.911H329.598V283.533C329.598 283.432 329.601 283.352 329.606 283.294C329.612 283.237 329.627 283.187 329.651 283.146C329.676 283.103 329.712 283.068 329.759 283.041C329.805 283.014 329.857 283 329.915 283C329.995 283 330.068 283.03 330.134 283.09C330.177 283.13 330.205 283.179 330.216 283.237C330.228 283.294 330.234 283.376 330.234 283.482V283.911H330.467C330.557 283.911 330.626 283.933 330.673 283.975C330.72 284.017 330.744 284.071 330.744 284.138C330.744 284.222 330.71 284.281 330.643 284.315C330.575 284.349 330.478 284.366 330.353 284.366H330.234V285.524C330.234 285.622 330.237 285.698 330.244 285.751C330.251 285.804 330.27 285.847 330.3 285.88C330.331 285.913 330.38 285.93 330.448 285.93C330.485 285.93 330.536 285.923 330.6 285.91C330.663 285.897 330.713 285.89 330.749 285.89C330.8 285.89 330.846 285.911 330.887 285.952C330.928 285.992 330.949 286.043 330.949 286.103C330.949 286.204 330.893 286.282 330.781 286.336C330.67 286.389 330.509 286.416 330.299 286.416C330.1 286.416 329.95 286.383 329.847 286.317C329.745 286.251 329.678 286.16 329.646 286.043C329.614 285.926 329.598 285.77 329.598 285.574V284.366H329.514C329.422 284.366 329.353 284.344 329.304 284.301C329.256 284.258 329.232 284.204 329.232 284.138C329.232 284.071 329.257 284.017 329.308 283.975C329.358 283.933 329.432 283.911 329.528 283.911Z" fill="#5F5F5F"/>
<path d="M333.295 285.182V286.019C333.295 286.151 333.265 286.25 333.204 286.316C333.144 286.383 333.064 286.416 332.964 286.416C332.868 286.416 332.79 286.383 332.73 286.316C332.67 286.25 332.64 286.151 332.64 286.019V285.015C332.64 284.857 332.635 284.734 332.624 284.646C332.613 284.559 332.584 284.487 332.535 284.431C332.487 284.375 332.411 284.347 332.307 284.347C332.099 284.347 331.962 284.417 331.896 284.559C331.83 284.7 331.797 284.903 331.797 285.168V286.019C331.797 286.15 331.767 286.248 331.707 286.315C331.648 286.382 331.569 286.416 331.471 286.416C331.375 286.416 331.296 286.382 331.234 286.315C331.173 286.248 331.142 286.15 331.142 286.019V284.217C331.142 284.099 331.17 284.009 331.225 283.948C331.28 283.886 331.353 283.855 331.443 283.855C331.53 283.855 331.602 283.884 331.661 283.942C331.719 283.999 331.748 284.079 331.748 284.181V284.241C331.858 284.11 331.976 284.014 332.102 283.952C332.228 283.891 332.368 283.86 332.522 283.86C332.681 283.86 332.819 283.891 332.934 283.955C333.049 284.018 333.144 284.113 333.218 284.241C333.325 284.111 333.44 284.016 333.563 283.953C333.686 283.891 333.821 283.86 333.971 283.86C334.144 283.86 334.294 283.894 334.42 283.961C334.546 284.029 334.64 284.126 334.702 284.252C334.756 284.366 334.784 284.545 334.784 284.789V286.019C334.784 286.151 334.753 286.25 334.693 286.316C334.632 286.383 334.552 286.416 334.453 286.416C334.356 286.416 334.278 286.382 334.216 286.315C334.155 286.248 334.124 286.15 334.124 286.019V284.96C334.124 284.825 334.118 284.716 334.107 284.635C334.095 284.553 334.064 284.485 334.012 284.43C333.961 284.374 333.884 284.347 333.78 284.347C333.696 284.347 333.616 284.371 333.541 284.42C333.465 284.47 333.407 284.536 333.365 284.619C333.318 284.725 333.295 284.912 333.295 285.182Z" fill="#5F5F5F"/>
<path d="M221.865 106.761V108.866H223.345V110.954C223.35 111.14 223.339 111.341 223.307 111.502C223.248 111.892 222.878 112.555 221.828 112.555C220.784 112.555 220.421 111.892 220.358 111.502C220.331 111.341 220.32 111.14 220.32 110.954V104.359C220.32 104.125 220.336 103.87 220.385 103.677C220.457 103.325 220.769 102.632 221.82 102.632C222.925 102.632 223.2 103.363 223.263 103.677C223.305 103.885 223.307 104.233 223.307 104.233V105.034H226.943V104.561C226.943 104.561 226.959 104.067 226.915 103.606C226.642 100.899 224.411 100.042 221.852 100.042C219.29 100.042 217.104 100.907 216.785 103.606C216.757 103.853 216.713 104.297 216.713 104.561V110.627C216.713 110.892 216.721 111.096 216.77 111.579C217.007 114.212 219.29 115.145 221.842 115.145C224.411 115.145 226.677 114.212 226.918 111.579C226.961 111.096 226.966 110.892 226.971 110.627V106.761H221.865ZM196.8 100.431H193.149V111.106C193.155 111.292 193.149 111.501 193.117 111.654C193.041 112.012 192.737 112.702 191.73 112.702C190.735 112.702 190.424 112.012 190.353 111.654C190.317 111.501 190.312 111.292 190.317 111.106V100.431H186.667V110.774C186.663 111.041 186.684 111.586 186.699 111.728C186.951 114.424 189.076 115.299 191.73 115.299C194.388 115.299 196.512 114.424 196.769 111.728C196.789 111.586 196.815 111.041 196.8 110.774V100.431ZM163.257 100.431L161.436 111.71L159.616 100.431H153.727L153.415 114.861H157.022L157.12 101.502L159.602 114.861H163.262L165.747 101.502L165.845 114.861H169.462L169.139 100.431H163.257ZM141.454 100.431L138.78 114.861H142.679L144.694 101.502L146.661 114.861H150.533L147.87 100.431H141.454ZM209.558 112.048L206.159 100.431H200.802V114.71H204.346L204.14 102.721L207.79 114.71H212.928V100.431H209.361L209.558 112.048ZM176.781 104.186C176.717 103.901 176.735 103.598 176.769 103.44C176.872 102.978 177.182 102.474 178.077 102.474C178.91 102.474 179.399 102.994 179.399 103.774V104.656H182.958V103.65C182.958 100.541 180.17 100.053 178.151 100.053C175.608 100.053 173.532 100.891 173.152 103.23C173.052 103.867 173.027 104.432 173.187 105.153C173.805 108.07 178.885 108.916 179.622 110.761C179.753 111.11 179.715 111.556 179.649 111.818C179.538 112.299 179.215 112.781 178.258 112.781C177.359 112.781 176.819 112.265 176.819 111.487L176.818 110.102H172.987V111.203C172.987 114.393 175.486 115.355 178.178 115.355C180.756 115.355 182.886 114.475 183.227 112.087C183.39 110.854 183.267 110.05 183.202 109.748C182.605 106.756 177.191 105.856 176.781 104.186ZM129.837 104.151C129.767 103.86 129.783 103.553 129.822 103.393C129.921 102.933 130.233 102.42 131.143 102.42C131.988 102.42 132.485 102.945 132.485 103.731V104.624H136.085V103.61C136.085 100.471 133.254 99.9707 131.213 99.9707C128.649 99.9707 126.554 100.822 126.171 103.178C126.066 103.825 126.048 104.394 126.2 105.123C126.825 108.073 131.955 108.926 132.701 110.793C132.841 111.14 132.799 111.586 132.729 111.859C132.611 112.344 132.285 112.833 131.32 112.833C130.418 112.833 129.878 112.308 129.878 111.519L129.873 110.131H126V111.234C126 114.461 128.535 115.431 131.247 115.431C133.856 115.431 135.997 114.542 136.347 112.127C136.52 110.883 136.39 110.073 136.331 109.765C135.722 106.737 130.248 105.84 129.837 104.151Z" fill="#5F5F5F"/>
<path d="M200.004 10.7454H195.594V24.4849C195.594 27.1706 194.867 29.6301 191.493 29.6301C188.036 29.6301 187.196 27.1706 187.196 24.4849V10.7454H182.773V24.6969C182.773 29.1071 185.404 32.754 191.493 32.754C197.484 32.754 200.004 29.1071 200.004 24.6969C199.99 24.6828 200.004 10.7454 200.004 10.7454ZM162 32.2027H166.297V22.2232H174.906V32.2027H179.217V10.7454H174.906V19.0145H166.297V10.7454H162V32.2027ZM221.952 16.2158C220.37 12.0318 217.221 9.78429 212.924 9.78429C206.625 9.78429 202.313 14.5054 202.313 21.2762C202.313 28.5558 205.981 32.754 212.602 32.754C214.071 32.754 217.025 32.0048 218.481 30.2803V32.1179H222.162V20.4139H213.021V23.6226H218.075C218.075 26.8454 215.877 29.729 212.826 29.729C208.416 29.729 206.835 25.234 206.835 21.1631C206.835 17.4031 208.626 12.5689 212.826 12.5689C216.297 12.5689 217.669 15.8907 218.075 17.6152L221.952 16.2158ZM235.18 9.57227C228.657 9.57227 224.346 14.6185 224.346 21.3751C224.346 28.2448 228.657 33.178 235.18 33.178C241.675 33.178 246 28.2307 246 21.3751C246 14.5195 241.675 9.57227 235.18 9.57227ZM235.18 12.4699C239.477 12.4699 241.255 17.4031 241.255 21.2762C241.255 25.1492 239.463 30.0824 235.18 30.0824C230.869 30.0824 229.077 25.1492 229.077 21.2762C229.077 17.4031 230.869 12.4699 235.18 12.4699ZM163.442 40.1891V38.196H165.387V40.1891H166.409V35.581H165.387V37.461H163.442V35.581H162.406V40.1891H163.442ZM175.34 35.581V38.0829C175.34 38.8321 175.34 39.553 174.304 39.553C173.268 39.553 173.268 38.8038 173.268 38.0829V35.581H172.246V38.507C172.246 39.765 173.156 40.288 174.304 40.288C175.452 40.288 176.362 39.6661 176.362 38.507V35.581H175.34ZM185.376 38.5211V39.4682C185.18 39.5813 184.858 39.5813 184.466 39.5813C183.556 39.5813 183.136 38.9452 183.136 37.8992C183.136 36.8532 183.542 36.2312 184.354 36.2312C184.97 36.2312 185.264 36.6411 185.264 37.0652H186.3C186.3 36.1323 185.488 35.5951 184.242 35.5951C183.332 35.5951 181.989 36.1181 181.989 37.9981C181.989 39.8922 183.22 40.4152 184.34 40.4152C185.25 40.4152 185.88 40.2032 186.286 40.0901V37.885H184.34V38.6342H185.362V38.5211H185.376ZM232.268 36.9521C232.268 36.0192 231.358 35.4821 230.519 35.4821C229.693 35.4821 228.671 36.0051 228.671 36.9521C228.671 37.5741 229.189 37.9981 229.791 38.2101C229.987 38.3232 230.309 38.4222 230.505 38.4222C231.134 38.6342 231.33 38.7473 231.33 39.1713C231.33 39.7085 230.813 39.8074 230.505 39.8074C229.791 39.8074 229.483 39.3975 229.483 38.8604H228.461C228.461 39.9064 229.175 40.4294 230.505 40.4294C231.54 40.4294 232.352 39.9064 232.352 38.9593C232.352 38.2101 231.834 37.8002 231.134 37.5882C230.939 37.4751 230.603 37.4751 230.407 37.3762C229.889 37.1641 229.581 37.0511 229.581 36.7542C229.581 36.4432 229.777 36.1323 230.407 36.1323C230.939 36.1323 231.232 36.4432 231.232 36.9662L232.268 36.9521ZM242.221 36.9521C242.221 36.0192 241.283 35.4821 240.373 35.4821C239.547 35.4821 238.525 36.0051 238.525 36.9521C238.525 37.5741 239.043 37.9981 239.645 38.2101C239.841 38.3232 240.163 38.4222 240.359 38.4222C240.975 38.6342 241.185 38.7473 241.185 39.1713C241.185 39.7085 240.667 39.8074 240.359 39.8074C239.645 39.8074 239.337 39.3975 239.337 38.8604H238.315C238.315 39.9064 239.029 40.4294 240.359 40.4294C241.381 40.4294 242.207 39.9064 242.207 38.9593C242.207 38.2101 241.675 37.8002 240.961 37.5882C240.765 37.4751 240.443 37.4751 240.247 37.3762C239.729 37.1641 239.435 37.0511 239.435 36.7542C239.435 36.4432 239.631 36.1323 240.247 36.1323C240.765 36.1323 241.073 36.4432 241.073 36.9662L242.221 36.9521ZM194.419 40.4011C195.958 40.4011 196.672 39.3551 196.672 37.8709C196.672 36.5139 195.944 35.3548 194.419 35.3548C192.879 35.3548 192.151 36.4008 192.151 37.8709C192.053 39.3551 192.767 40.4011 194.419 40.4011ZM194.419 36.2171C195.44 36.2171 195.65 37.1641 195.65 37.984C195.65 38.818 195.454 39.7792 194.419 39.7792C193.383 39.7792 193.187 38.8321 193.187 37.984C193.187 37.15 193.383 36.2171 194.419 36.2171ZM210.32 40.3021C211.23 40.3021 212.168 39.8922 212.168 39.0441C212.168 38.295 211.636 37.885 211.034 37.885C211.44 37.885 211.944 37.4751 211.944 36.839C211.944 36.005 211.328 35.581 210.306 35.581H208.248V40.288H210.32V40.3021ZM209.298 39.5671V38.196H210.208C210.614 38.196 211.034 38.3091 211.034 38.8321C211.034 39.3551 210.628 39.5813 210.208 39.5813L209.298 39.5671ZM209.298 37.461V36.2029H210.208C210.614 36.2029 210.824 36.5281 210.824 36.8249C210.824 37.15 210.516 37.4468 210.11 37.4468H209.298V37.461ZM220.37 40.4011C222.008 40.4011 222.722 39.3551 222.722 37.8709C222.722 36.4008 222.008 35.3548 220.37 35.3548C218.719 35.3548 218.005 36.4008 218.005 37.8709C218.005 39.3551 218.719 40.4011 220.37 40.4011ZM220.37 36.2171C221.392 36.2171 221.588 37.1641 221.588 37.984C221.588 38.818 221.392 39.7792 220.37 39.7792C219.334 39.7792 219.124 38.8321 219.124 37.984C219.138 37.0369 219.334 36.2171 220.37 36.2171Z" fill="#5F5F5F"/>
</g>
<defs>
<clipPath id="clip0_2466_79713">
<rect width="338" height="307" fill="white"/>
</clipPath>
</defs>
</svg>
